<svg xmlns="http://www.w3.org/2000/svg" xmlns:xlink="http://www.w3.org/1999/xlink" width="220" zoomAndPan="magnify" viewBox="0 0 165 30.000001" height="40" preserveAspectRatio="xMidYMid meet" version="1.0"><defs><g/><clipPath id="8a9cc13768"><path d="M 18.574219 5.457031 L 36.71875 5.457031 L 36.71875 23.601562 L 18.574219 23.601562 Z M 18.574219 5.457031 " clip-rule="nonzero"/></clipPath><clipPath id="5b882677a4"><path d="M 40 0 L 149 0 L 149 29.03125 L 40 29.03125 Z M 40 0 " clip-rule="nonzero"/></clipPath><clipPath id="71355052de"><rect x="0" width="109" y="0" height="30"/></clipPath></defs><g clip-path="url(#8a9cc13768)"><path fill="#ffffff" d="M 22.203125 20.328125 L 22.40625 20.53125 L 22.429688 20.550781 C 23.070312 21.214844 23.0625 22.28125 22.40625 22.9375 C 21.753906 23.589844 20.683594 23.597656 20.023438 22.957031 L 20 22.9375 L 19.234375 22.171875 C 18.574219 21.511719 18.574219 20.429688 19.234375 19.765625 C 19.894531 19.105469 20.980469 19.105469 21.640625 19.765625 Z M 33.550781 11.019531 L 36.078125 8.492188 C 36.738281 7.832031 36.738281 6.75 36.078125 6.085938 C 35.414062 5.425781 34.332031 5.425781 33.671875 6.085938 L 29.941406 9.816406 C 29.28125 10.476562 29.28125 11.558594 29.941406 12.222656 L 31.144531 13.425781 L 31.359375 13.636719 L 33.6875 15.964844 C 34.347656 16.625 35.429688 16.625 36.09375 15.964844 C 36.753906 15.300781 36.753906 14.21875 36.09375 13.558594 L 33.765625 11.230469 Z M 19.332031 6.101562 C 19.992188 5.441406 21.078125 5.441406 21.738281 6.101562 L 36.058594 20.425781 C 36.722656 21.085938 36.722656 22.171875 36.058594 22.832031 C 35.398438 23.492188 34.316406 23.492188 33.652344 22.832031 L 19.332031 8.507812 C 18.671875 7.847656 18.671875 6.765625 19.332031 6.101562 Z M 19.3125 12.960938 C 19.972656 12.300781 21.054688 12.300781 21.71875 12.960938 L 29.203125 20.445312 C 29.863281 21.105469 29.863281 22.191406 29.203125 22.851562 C 28.539062 23.511719 27.457031 23.511719 26.796875 22.851562 L 19.3125 15.367188 C 18.648438 14.707031 18.648438 13.621094 19.3125 12.960938 Z M 19.3125 12.960938 " fill-opacity="1" fill-rule="evenodd"/></g><g clip-path="url(#5b882677a4)"><g transform="matrix(1, 0, 0, 1, 40, 0.000000000000005692)"><g clip-path="url(#71355052de)"><g fill="#ffffff" fill-opacity="1"><g transform="translate(0.666625, 22.16538)"><g><path d="M 6.515625 0 L 0.359375 -16.828125 L 3.65625 -16.828125 L 8.421875 -3.15625 L 13.203125 -16.828125 L 16.453125 -16.828125 L 10.296875 0 Z M 6.515625 0 "/></g></g></g><g fill="#ffffff" fill-opacity="1"><g transform="translate(21.192189, 22.16538)"><g><path d="M 1.640625 0 L 1.640625 -16.828125 L 12.625 -16.828125 L 12.625 -14.359375 L 4.71875 -14.359375 L 4.71875 -9.734375 L 11.90625 -9.734375 L 11.90625 -7.328125 L 4.71875 -7.328125 L 4.71875 -2.484375 L 12.625 -2.484375 L 12.625 0 Z M 1.640625 0 "/></g></g></g><g fill="#ffffff" fill-opacity="1"><g transform="translate(38.809745, 22.16538)"><g><path d="M 1.640625 0 L 1.640625 -16.828125 L 7.8125 -16.828125 C 9.15625 -16.828125 10.265625 -16.597656 11.140625 -16.140625 C 12.015625 -15.691406 12.664062 -15.078125 13.09375 -14.296875 C 13.53125 -13.515625 13.75 -12.648438 13.75 -11.703125 C 13.75 -10.679688 13.476562 -9.742188 12.9375 -8.890625 C 12.40625 -8.046875 11.570312 -7.429688 10.4375 -7.046875 L 13.921875 0 L 10.390625 0 L 7.265625 -6.640625 L 4.71875 -6.640625 L 4.71875 0 Z M 4.71875 -8.890625 L 7.625 -8.890625 C 8.644531 -8.890625 9.394531 -9.140625 9.875 -9.640625 C 10.363281 -10.140625 10.609375 -10.796875 10.609375 -11.609375 C 10.609375 -12.410156 10.367188 -13.050781 9.890625 -13.53125 C 9.421875 -14.019531 8.65625 -14.265625 7.59375 -14.265625 L 4.71875 -14.265625 Z M 4.71875 -8.890625 "/></g></g></g><g fill="#ffffff" fill-opacity="1"><g transform="translate(57.508788, 22.16538)"><g><path d="M 1.640625 0 L 1.640625 -16.828125 L 8.390625 -16.828125 C 10.140625 -16.828125 11.472656 -16.421875 12.390625 -15.609375 C 13.316406 -14.804688 13.78125 -13.769531 13.78125 -12.5 C 13.78125 -11.445312 13.492188 -10.601562 12.921875 -9.96875 C 12.359375 -9.332031 11.664062 -8.90625 10.84375 -8.6875 C 11.800781 -8.488281 12.59375 -8.007812 13.21875 -7.25 C 13.84375 -6.488281 14.15625 -5.601562 14.15625 -4.59375 C 14.15625 -3.257812 13.675781 -2.160156 12.71875 -1.296875 C 11.757812 -0.429688 10.398438 0 8.640625 0 Z M 4.71875 -9.765625 L 7.9375 -9.765625 C 8.800781 -9.765625 9.460938 -9.960938 9.921875 -10.359375 C 10.390625 -10.765625 10.625 -11.335938 10.625 -12.078125 C 10.625 -12.773438 10.394531 -13.328125 9.9375 -13.734375 C 9.488281 -14.148438 8.804688 -14.359375 7.890625 -14.359375 L 4.71875 -14.359375 Z M 4.71875 -2.5 L 8.15625 -2.5 C 9.0625 -2.5 9.765625 -2.710938 10.265625 -3.140625 C 10.773438 -3.566406 11.03125 -4.160156 11.03125 -4.921875 C 11.03125 -5.710938 10.765625 -6.332031 10.234375 -6.78125 C 9.710938 -7.226562 9.003906 -7.453125 8.109375 -7.453125 L 4.71875 -7.453125 Z M 4.71875 -2.5 "/></g></g></g><g fill="#ffffff" fill-opacity="1"><g transform="translate(76.403257, 22.16538)"><g><path d="M 1.78125 0 L 1.78125 -16.828125 L 3.796875 -16.828125 L 3.796875 0 Z M 1.78125 0 "/></g></g></g><g fill="#ffffff" fill-opacity="1"><g transform="translate(85.705346, 22.16538)"><g><path d="M 9.421875 0.28125 C 7.773438 0.28125 6.328125 -0.0820312 5.078125 -0.8125 C 3.835938 -1.539062 2.867188 -2.5625 2.171875 -3.875 C 1.472656 -5.1875 1.125 -6.703125 1.125 -8.421875 C 1.125 -10.128906 1.472656 -11.632812 2.171875 -12.9375 C 2.867188 -14.25 3.835938 -15.273438 5.078125 -16.015625 C 6.328125 -16.753906 7.773438 -17.125 9.421875 -17.125 C 11.085938 -17.125 12.539062 -16.753906 13.78125 -16.015625 C 15.03125 -15.273438 16 -14.25 16.6875 -12.9375 C 17.375 -11.632812 17.71875 -10.128906 17.71875 -8.421875 C 17.71875 -6.703125 17.375 -5.1875 16.6875 -3.875 C 16 -2.5625 15.03125 -1.539062 13.78125 -0.8125 C 12.539062 -0.0820312 11.085938 0.28125 9.421875 0.28125 Z M 9.421875 -1.484375 C 10.660156 -1.484375 11.75 -1.757812 12.6875 -2.3125 C 13.625 -2.875 14.351562 -3.671875 14.875 -4.703125 C 15.394531 -5.734375 15.65625 -6.972656 15.65625 -8.421875 C 15.65625 -9.859375 15.394531 -11.085938 14.875 -12.109375 C 14.351562 -13.140625 13.625 -13.929688 12.6875 -14.484375 C 11.75 -15.035156 10.660156 -15.3125 9.421875 -15.3125 C 8.191406 -15.3125 7.109375 -15.035156 6.171875 -14.484375 C 5.234375 -13.929688 4.503906 -13.140625 3.984375 -12.109375 C 3.460938 -11.085938 3.203125 -9.859375 3.203125 -8.421875 C 3.203125 -6.972656 3.460938 -5.734375 3.984375 -4.703125 C 4.503906 -3.671875 5.234375 -2.875 6.171875 -2.3125 C 7.109375 -1.757812 8.191406 -1.484375 9.421875 -1.484375 Z M 9.421875 -1.484375 "/></g></g></g></g></g></g></svg>