<svg xmlns="http://www.w3.org/2000/svg" xmlns:xlink="http://www.w3.org/1999/xlink" width="1024" zoomAndPan="magnify" viewBox="0 0 768 767.999994" height="1024" preserveAspectRatio="xMidYMid meet" version="1.0"><path fill="#ffffff" d="M 199.308594 580.628906 L 206.265625 587.511719 L 206.960938 588.207031 C 228.609375 610.628906 228.378906 646.734375 206.265625 668.847656 C 184.152344 690.957031 148.046875 691.191406 125.625 669.542969 L 124.929688 668.847656 L 117.96875 661.964844 L 99.027344 642.945312 C 76.683594 620.601562 76.683594 584.03125 99.027344 561.609375 C 121.371094 539.265625 158.019531 539.265625 180.363281 561.609375 Z M 582.949219 265.953125 L 589.671875 259.226562 L 597.40625 251.496094 L 668.304688 180.597656 C 690.648438 158.253906 690.648438 121.683594 668.304688 99.261719 C 645.882812 76.917969 609.3125 76.917969 586.96875 99.261719 L 516.070312 170.160156 L 508.335938 177.890625 L 460.941406 225.285156 C 438.597656 247.628906 438.597656 284.199219 460.941406 306.621094 L 501.609375 347.289062 L 508.878906 354.480469 L 587.507812 433.109375 C 609.851562 455.453125 646.421875 455.453125 668.84375 433.109375 C 691.1875 410.765625 691.1875 374.117188 668.84375 351.773438 L 590.214844 273.144531 Z M 102.277344 99.800781 L 102.277344 99.726562 C 124.621094 77.382812 161.265625 77.382812 183.613281 99.726562 L 667.761719 583.953125 C 690.183594 606.296875 690.183594 642.945312 667.761719 665.289062 C 645.417969 687.632812 608.847656 687.632812 586.425781 665.289062 L 102.277344 181.0625 C 79.929688 158.71875 79.929688 122.148438 102.277344 99.800781 Z M 101.578125 331.59375 C 123.925781 309.25 160.496094 309.25 182.914062 331.59375 L 435.96875 584.648438 C 458.3125 606.992188 458.3125 643.640625 435.96875 665.984375 C 413.546875 688.328125 376.976562 688.328125 354.632812 665.984375 L 101.578125 412.929688 C 79.234375 390.585938 79.234375 353.9375 101.578125 331.59375 Z M 101.578125 331.59375 " fill-opacity="1" fill-rule="evenodd"/></svg>