<svg xmlns="http://www.w3.org/2000/svg" xmlns:xlink="http://www.w3.org/1999/xlink" width="1024" zoomAndPan="magnify" viewBox="0 0 768 767.999994" height="1024" preserveAspectRatio="xMidYMid meet" version="1.0"><path fill="#000000" d="M 199.308594 580.511719 L 206.265625 587.394531 L 206.960938 588.089844 C 228.609375 610.511719 228.378906 646.617188 206.265625 668.730469 C 184.152344 690.84375 148.046875 691.074219 125.625 669.425781 L 124.929688 668.730469 L 117.96875 661.847656 L 99.027344 642.828125 C 76.683594 620.484375 76.683594 583.914062 99.027344 561.492188 C 121.371094 539.148438 158.019531 539.148438 180.363281 561.492188 Z M 582.949219 265.839844 L 589.671875 259.113281 L 668.304688 180.480469 C 690.648438 158.136719 690.648438 121.566406 668.304688 99.144531 C 645.882812 76.800781 609.3125 76.800781 586.96875 99.144531 L 460.941406 225.171875 C 438.597656 247.515625 438.597656 284.085938 460.941406 306.507812 L 501.609375 347.175781 L 508.878906 354.363281 L 587.507812 432.996094 C 609.851562 455.339844 646.421875 455.339844 668.84375 432.996094 C 691.1875 410.652344 691.1875 374.003906 668.84375 351.660156 L 590.214844 273.027344 Z M 102.277344 99.6875 L 102.277344 99.609375 C 124.621094 77.265625 161.265625 77.265625 183.613281 99.609375 L 667.761719 583.835938 C 690.183594 606.183594 690.183594 642.828125 667.761719 665.175781 C 645.417969 687.519531 608.847656 687.519531 586.425781 665.175781 L 102.277344 180.945312 C 79.929688 158.601562 79.929688 122.03125 102.277344 99.6875 Z M 101.578125 331.480469 C 123.925781 309.136719 160.496094 309.136719 182.914062 331.480469 L 238.042969 386.605469 L 357.339844 505.902344 L 435.96875 584.535156 C 458.3125 606.878906 458.3125 643.527344 435.96875 665.871094 C 413.546875 688.214844 376.976562 688.214844 354.632812 665.871094 L 276.003906 587.238281 L 156.707031 467.941406 L 101.578125 412.816406 C 79.234375 390.472656 79.234375 353.824219 101.578125 331.480469 Z M 101.578125 331.480469 " fill-opacity="1" fill-rule="evenodd"/></svg>