<svg xmlns="http://www.w3.org/2000/svg" xmlns:xlink="http://www.w3.org/1999/xlink" width="500" zoomAndPan="magnify" viewBox="0 0 375 374.999991" height="500" preserveAspectRatio="xMidYMid meet" version="1.0"><rect x="-37.5" width="450" fill="#ffffff" y="-37.499999" height="449.999989" fill-opacity="1"/><rect x="-37.5" width="450" fill="#ffffff" y="-37.499999" height="449.999989" fill-opacity="1"/><path fill="#000000" d="M 98.566406 282.183594 L 101.917969 285.496094 L 102.253906 285.832031 C 112.679688 296.632812 112.566406 314.023438 101.917969 324.671875 C 91.265625 335.324219 73.875 335.4375 63.074219 325.007812 L 62.742188 324.671875 L 59.390625 321.359375 L 50.265625 312.199219 C 39.503906 301.4375 39.503906 283.820312 50.265625 273.019531 C 61.027344 262.257812 78.679688 262.257812 89.441406 273.019531 Z M 283.351562 130.613281 L 286.59375 127.375 L 290.316406 123.648438 L 324.464844 89.5 C 335.230469 78.738281 335.230469 61.125 324.464844 50.324219 C 313.667969 39.5625 296.050781 39.5625 285.289062 50.324219 L 224.585938 111.027344 C 213.824219 121.789062 213.824219 139.402344 224.585938 150.203125 L 244.175781 169.789062 L 247.675781 173.253906 L 285.550781 211.128906 C 296.3125 221.890625 313.925781 221.890625 324.726562 211.128906 C 335.488281 200.367188 335.488281 182.714844 324.726562 171.949219 L 286.851562 134.078125 Z M 51.828125 50.585938 L 51.828125 50.546875 C 62.589844 39.785156 80.242188 39.785156 91.007812 50.546875 L 324.207031 283.785156 C 335.003906 294.546875 335.003906 312.199219 324.207031 322.960938 C 313.441406 333.722656 295.828125 333.722656 285.027344 322.960938 L 51.828125 89.722656 C 41.066406 78.960938 41.066406 61.347656 51.828125 50.585938 Z M 51.492188 162.230469 C 62.257812 151.46875 79.871094 151.46875 90.671875 162.230469 L 117.222656 188.785156 L 174.683594 246.246094 L 212.558594 284.117188 C 223.320312 294.882812 223.320312 312.535156 212.558594 323.296875 C 201.757812 334.058594 184.144531 334.058594 173.382812 323.296875 L 51.492188 201.40625 C 40.730469 190.644531 40.730469 172.992188 51.492188 162.230469 Z M 51.492188 162.230469 " fill-opacity="1" fill-rule="evenodd"/></svg>